<?xml version="1.0" standalone="no"?>
<svg
  width="600"
  height="600"
  viewBox="0 0 600 600"
  xmlns="http://www.w3.org/2000/svg"
>
  <g transform="translate(300,300)">
    <path d="M50.8,-73.7C89.3,-54.2,160.2,-79.9,193.6,-69.9C226.9,-59.9,222.8,-14.2,200.1,17C177.3,48.3,135.9,65.1,101,65.1C66.1,65.1,37.7,48.4,19.6,42.7C1.5,37.1,-6.3,42.5,-14.4,42.9C-22.5,43.3,-30.9,38.7,-33,31.3C-35.1,24,-30.9,13.9,-40.6,0.8C-50.3,-12.3,-73.8,-28.4,-85.8,-54.7C-97.9,-80.9,-98.4,-117.4,-82.2,-147C-66,-176.6,-33,-199.3,-13.4,-178.4C6.1,-157.5,12.3,-93.1,50.8,-73.7Z" fill="#fbe7b5" />
  </g>
</svg>
  